<svg width="12" height="12" viewBox="0 0 12 12" fill="none" xmlns="http://www.w3.org/2000/svg">
<path fill-rule="evenodd" clip-rule="evenodd" d="M5.51996 9.90164L2.76166 11.4211C2.571 11.5261 2.33519 11.4493 2.23495 11.2495C2.19504 11.17 2.18127 11.0788 2.19577 10.9903L2.72255 7.77209C2.76595 7.50696 2.68206 7.23643 2.49822 7.04867L0.266706 4.76954C0.112461 4.61201 0.109305 4.35328 0.259657 4.19167C0.319528 4.12731 0.397977 4.08543 0.482859 4.07251L3.56673 3.60298C3.8208 3.5643 4.04043 3.3971 4.15405 3.15588L5.5332 0.227888C5.62853 0.0255014 5.86239 -0.0575936 6.05555 0.0422902C6.13247 0.0820645 6.19472 0.147297 6.23269 0.227888L7.61184 3.15588C7.72546 3.3971 7.94509 3.5643 8.19915 3.60298L11.283 4.07251C11.4962 4.10496 11.6439 4.31233 11.6129 4.53568C11.6006 4.62461 11.5606 4.70681 11.4992 4.76954L9.26767 7.04867C9.08382 7.23643 8.99993 7.50696 9.04333 7.77209L9.57012 10.9903C9.60653 11.2127 9.46395 11.424 9.25165 11.4621C9.16711 11.4773 9.08015 11.4629 9.00423 11.4211L6.24592 9.90164C6.01868 9.77647 5.7472 9.77647 5.51996 9.90164Z" fill="#FFFFFF"/>
</svg>
